<?xml version="1.0" encoding="UTF-8"?>
<svg version="1.1" xmlns="http://www.w3.org/2000/svg" width="937" height="270">
<path d="M0 0 C88.32776618 0 88.32776618 0 103 14 C115.8489711 27.81704426 117.15224866 45.83482814 117.14526367 63.7331543 C117.14862228 64.97994461 117.1519809 66.22673492 117.15544128 67.51130676 C117.16327554 70.90831848 117.16661666 74.30526904 117.16725707 77.70228553 C117.16797147 79.83233189 117.17011316 81.96237197 117.17275429 84.09241676 C117.18198714 91.54558336 117.1860919 98.99873217 117.18530273 106.4519043 C117.18470299 113.36315522 117.19523987 120.27432784 117.2110464 127.18555897 C117.22419072 133.1485463 117.22948374 139.11150825 117.22884732 145.07450992 C117.22859429 148.62283357 117.23133637 152.17108757 117.24202538 155.71939659 C117.25365048 159.68625218 117.24891768 163.6530033 117.24291992 167.61987305 C117.24853943 168.77099579 117.25415894 169.92211853 117.25994873 171.10812378 C117.18832871 189.89174265 113.93094284 207.32894123 100.75 221.40234375 C82.07287075 239.39105317 55.09172967 239.98941545 30.68431091 242.32232666 C24.31421622 242.94042575 17.97929684 243.75200166 11.63964844 244.6262207 C7.77807542 245.02279089 3.8818828 245 0 245 C0 164.15 0 83.3 0 0 Z M39 35 C39 91.1 39 147.2 39 205 C56.96759085 205.21658274 56.96759085 205.21658274 72.125 197.1875 C76.01274184 192.34232919 77.2481194 187.23048959 77.26069641 181.09329224 C77.27132362 179.35653229 77.27132362 179.35653229 77.28216553 177.58468628 C77.27968811 176.32842438 77.27721069 175.07216248 77.2746582 173.77783203 C77.2790094 172.43033568 77.28419391 171.0828418 77.29014587 169.73535156 C77.30350416 166.08649772 77.30411803 162.43774767 77.30158257 158.78887415 C77.30051059 155.73733564 77.30540212 152.68581794 77.310188 149.6342839 C77.32127248 142.43179184 77.32172673 135.22935193 77.31567383 128.02685547 C77.30963586 120.60938523 77.32194289 113.19210477 77.3432439 105.77466691 C77.36088797 99.3948436 77.36685679 93.01508055 77.36360615 86.63523376 C77.36179743 82.82993207 77.36438818 79.02476573 77.37832069 75.21948624 C77.39094005 71.63905796 77.38891649 68.05892437 77.37590981 64.47850037 C77.37243473 62.54778264 77.38369204 60.61705574 77.39547729 58.68637085 C77.35557474 52.06764566 76.81514088 47.01913475 74 41 C73.34 41 72.68 41 72 41 C72 40.34 72 39.68 72 39 C61.76393202 33.13661002 61.76393202 33.13661002 39 35 Z " fill="#E6020B" transform="translate(12,11)"/>
<path d="M0 0 C89.37931034 0 89.37931034 0 103.90625 13.8125 C114.3398689 24.7766419 115.35791517 39.07909067 115.31567383 53.49121094 C115.31252582 55.73162094 115.33599376 57.97069101 115.36132812 60.2109375 C115.42325092 74.02687651 114.05389375 87.64605922 104.0078125 98.06640625 C100.59100362 101.15442786 97.08121175 103.83185626 93 106 C93.556875 106.25652344 94.11375 106.51304688 94.6875 106.77734375 C103.45272281 111.17476128 109.23022215 116.87044284 112.4375 126.25 C114.05036788 131.71783908 115.11660191 136.835658 115.17358398 142.54614258 C115.18707382 143.63530472 115.20056366 144.72446686 115.21446228 145.84663391 C115.23011986 147.60284309 115.23011986 147.60284309 115.24609375 149.39453125 C115.27906516 151.90299785 115.31227618 154.41146131 115.34570312 156.91992188 C115.39282392 160.85145659 115.43720266 164.78298176 115.47680664 168.71459961 C115.55605161 193.12127973 115.55605161 193.12127973 120 217 C106.47 217 92.94 217 79 217 C75.62585089 204.62811993 75.62585089 204.62811993 75.61523438 199.12670898 C75.60512329 197.89850937 75.59501221 196.67030975 75.58459473 195.40489197 C75.58761597 194.11498856 75.59063721 192.82508514 75.59375 191.49609375 C75.58448835 190.12328371 75.57350807 188.75048431 75.56091309 187.37770081 C75.51835338 182.33513395 75.50693022 177.29259273 75.49468994 172.24987793 C75.4830813 167.96904046 75.45930822 163.68859046 75.41999817 159.40791512 C75.40660739 157.42404184 75.41076579 155.44007454 75.41540527 153.4561615 C75.39827343 141.80076105 75.39827343 141.80076105 70.76062012 131.35691833 C64.65925116 125.63981013 56.33525316 125.70910702 48.5 125.875 C47.67757812 125.88402344 46.85515625 125.89304687 46.0078125 125.90234375 C44.00507917 125.92563135 42.00249846 125.96149041 40 126 C40.00222061 127.1503624 40.00444122 128.30072479 40.00672913 129.48594666 C40.02695922 140.30200059 40.0419715 151.1180507 40.05181217 161.93411922 C40.05704134 167.49539411 40.06413958 173.05665379 40.07543945 178.61791992 C40.08626715 183.98007419 40.09227658 189.34221378 40.09487724 194.70437813 C40.09673171 196.75500278 40.10035272 198.8056266 40.10573006 200.85624504 C40.11293893 203.71790203 40.11399101 206.57949757 40.11352539 209.44116211 C40.11712067 210.29783478 40.12071594 211.15450745 40.12442017 212.03713989 C40.11405216 217.88594784 40.11405216 217.88594784 39 219 C36.45718381 219.23154563 33.93527388 219.40366431 31.38671875 219.53515625 C30.62075882 219.57813339 29.85479889 219.62111053 29.06562805 219.66539001 C26.60647105 219.80213929 24.14700859 219.93224416 21.6875 220.0625 C20.03969105 220.15389217 18.39190421 220.245684 16.74414062 220.33789062 C15.16668643 220.4248385 13.58921301 220.51143829 12.01171875 220.59765625 C11.26991867 220.63826675 10.52811859 220.67887726 9.76383972 220.72071838 C6.50137866 220.89298492 3.26839593 221 0 221 C0 148.07 0 75.14 0 0 Z M40 32 C40 52.13 40 72.26 40 93 C56.73740772 93.88792573 56.73740772 93.88792573 71 87 C76.14656547 79.28015179 76.18142008 71.24827905 76.1875 62.25 C76.20586914 60.84234375 76.20586914 60.84234375 76.22460938 59.40625 C76.24305325 50.5040061 75.88825204 42.36200802 69.92578125 35.375 C61.66225126 29.47487311 48.70041566 32 40 32 Z " fill="#E6020B" transform="translate(294,10)"/>
<path d="M0 0 C89.83058824 0 89.83058824 0 103.68359375 13.66015625 C114.03892495 24.99679066 115.52352047 39.5734628 115.39111328 54.36572266 C115.37501229 56.49837149 115.39106717 58.62912637 115.41015625 60.76171875 C115.43229625 74.51611923 113.76301084 87.66367299 104.04296875 98.1015625 C100.31380838 101.56690081 97.06847026 103.85959419 92 105 C92 105.66 92 106.32 92 107 C92.88558594 107.08507812 93.77117187 107.17015625 94.68359375 107.2578125 C100.52129716 108.56424789 104.1347019 112.60556259 108 117 C114.4944541 127.38208555 115.29010969 138.8175992 115.37890625 150.76953125 C115.39590073 151.96752853 115.4128952 153.16552582 115.43040466 154.39982605 C115.48316536 158.20399798 115.52362356 162.00816298 115.5625 165.8125 C115.60674903 169.60606846 115.65375477 173.39956254 115.70530701 177.19303894 C115.73670203 179.54382167 115.76375318 181.89466826 115.78553772 184.24555969 C115.92530053 195.5168903 116.16094185 206.30375621 120 217 C114.80387722 217.02473982 109.60778882 217.04287892 104.41162109 217.05493164 C102.64436241 217.05995687 100.87710788 217.06677809 99.10986328 217.07543945 C96.56802343 217.08758428 94.0262386 217.09324645 91.484375 217.09765625 C90.69569031 217.10281754 89.90700562 217.10797882 89.09442139 217.11329651 C85.55463597 217.11365758 82.40499206 216.95395888 79 216 C76.09499648 207.41873617 75.57263882 199.5094079 75.59375 190.49609375 C75.58448835 189.12328371 75.57350807 187.75048431 75.56091309 186.37770081 C75.51835338 181.33513395 75.50693022 176.29259273 75.49468994 171.24987793 C75.4830813 166.96904046 75.45930822 162.68859046 75.41999817 158.40791512 C75.40660739 156.42404184 75.41076579 154.44007454 75.41540527 152.4561615 C75.43903287 140.75815853 75.43903287 140.75815853 70.68981934 130.35691833 C64.56700038 124.82669244 57.42396733 124.64201172 49.625 124.375 C48.69816406 124.33632812 47.77132812 124.29765625 46.81640625 124.2578125 C44.5444623 124.16412409 42.27251404 124.07840652 40 124 C40.00222061 125.13783432 40.00444122 126.27566864 40.00672913 127.44798279 C40.02695933 138.14630749 40.04197155 148.84462834 40.05181217 159.5429678 C40.05704131 165.04370862 40.06413951 170.54443405 40.07543945 176.04516602 C40.08626725 181.3489656 40.0922766 186.65275035 40.09487724 191.95656013 C40.09673169 193.98485612 40.10035267 196.01315126 40.10573006 198.04144096 C40.11293906 200.87196514 40.113991 203.70242718 40.11352539 206.53295898 C40.11712067 207.38028091 40.12071594 208.22760284 40.12442017 209.1006012 C40.11405216 214.88594784 40.11405216 214.88594784 39 216 C26.13 216 13.26 216 0 216 C0 144.72 0 73.44 0 0 Z M40 32 C40 51.8 40 71.6 40 92 C56.59153863 92.84480682 56.59153863 92.84480682 70.4375 86.625 C77.00384905 79.89849609 76.18183872 70.5247658 76.1875 61.6875 C76.20586914 60.19573242 76.20586914 60.19573242 76.22460938 58.67382812 C76.23938641 51.17201895 75.90659995 43.61202529 72 37 C61.14967847 28.91997333 56.99773176 32 40 32 Z " fill="#E6020B" transform="translate(435,10)"/>
<path d="M0 0 C17.49 0 34.98 0 53 0 C54.29373071 3.88119213 55.31268801 7.1017752 56.01274109 11.02911377 C56.18730803 11.9957023 56.36187498 12.96229084 56.54173183 13.95816994 C56.72607312 15.00483519 56.91041441 16.05150043 57.1003418 17.12988281 C57.30114633 18.24901251 57.50195086 19.3681422 57.70884037 20.52118492 C58.37646449 24.24776681 59.03778152 27.97544045 59.69921875 31.703125 C60.17121968 34.34353329 60.64360213 36.98387039 61.11651611 39.62411499 C62.12269347 45.24528721 63.12590119 50.8669821 64.12692261 56.48907471 C66.46693443 69.63093951 68.81810294 82.77081006 71.16963387 95.91061783 C71.69289136 98.83449511 72.2159111 101.75841477 72.73873711 104.68236923 C76.06876581 123.30412355 79.43088699 141.91950665 82.859375 160.5234375 C83.03954981 161.50202728 83.21972462 162.48061707 83.40535927 163.48886108 C85.05330103 172.43846887 86.70587376 181.38718084 88.37284279 190.3332653 C88.95947413 193.48682207 89.54204255 196.64111988 90.12361908 199.79561234 C90.38778546 201.22265843 90.65387823 202.64934961 90.92212677 204.075634 C91.28223954 205.99044241 91.63532537 207.9065684 91.98803711 209.82275391 C92.18513779 210.88007721 92.38223846 211.93740051 92.58531189 213.02676392 C93.00802715 216.05755314 93.07394337 218.94404284 93 222 C79.98257939 223.21618838 67.08304907 224.37739565 54 224 C52.63905965 218.78932582 51.53947826 213.65203772 50.7109375 208.32421875 C50.60278717 207.63237991 50.49463684 206.94054108 50.38320923 206.22773743 C50.15801246 204.78189899 49.93458774 203.33578349 49.71289062 201.8894043 C49.3730639 199.6748832 49.02679025 197.461438 48.6796875 195.24804688 C47 184.42422035 47 184.42422035 47 181 C46.44352783 181.05534912 45.88705566 181.11069824 45.3137207 181.16772461 C31.54981949 182.52005147 17.81942819 183.4630488 4 184 C3.92483154 184.56170898 3.84966309 185.12341797 3.7722168 185.70214844 C2.36290457 196.20541269 0.92688807 206.7042386 -0.625 217.1875 C-0.74786377 218.02958008 -0.87072754 218.87166016 -0.99731445 219.73925781 C-1.47561609 222.93408862 -1.97627838 225.92883513 -3 229 C-7.14382972 229.43180046 -11.28811252 229.85887322 -15.43286133 230.28173828 C-16.84021873 230.42597507 -18.2474488 230.57146041 -19.65454102 230.71826172 C-21.68733322 230.93011599 -23.7205544 231.13734464 -25.75390625 231.34375 C-26.97408447 231.46943359 -28.1942627 231.59511719 -29.45141602 231.72460938 C-32.98428035 231.99878006 -36.45820427 232.01859582 -40 232 C-36.1320368 207.84688642 -32.11081269 183.72441423 -27.93521118 159.62265301 C-27.18407677 155.28496667 -26.434978 150.94692863 -25.68554688 146.60894775 C-24.42972646 139.34160512 -23.17238987 132.07452614 -21.9140625 124.80761719 C-20.47717202 116.50939463 -19.04267204 108.21076156 -17.60945892 99.91190314 C-16.20656866 91.78893748 -14.80201247 83.66626067 -13.39672852 75.5437088 C-12.80946719 72.14919935 -12.22273099 68.75459984 -11.63647461 65.35991669 C-7.8694867 43.55182767 -3.98616082 21.76930069 0 0 Z M25 43 C22.74666173 55.4029643 20.74735432 67.83289559 18.86328125 80.296875 C18.57617971 82.18875227 18.28900273 84.0806181 18.00175476 85.97247314 C17.40621405 89.89842297 16.81231381 93.82461675 16.21948242 97.75097656 C15.46017166 102.77830728 14.69551344 107.80480907 13.92953205 112.83112717 C13.33763521 116.72033613 12.74910977 120.61004967 12.16155052 124.49991608 C11.88084305 126.35482814 11.59895573 128.20956207 11.31585121 130.0641098 C10.92229942 132.64476159 10.53343727 135.2260785 10.14575195 137.80761719 C10.02890549 138.56709656 9.91205902 139.32657593 9.79167175 140.10906982 C9.24683936 143.77032676 8.86660547 147.29678822 9 151 C13.37844408 150.88185874 17.75665929 150.75761831 22.13476562 150.62768555 C23.62462641 150.58433411 25.11453695 150.54265916 26.60449219 150.50268555 C28.74429327 150.44498785 30.88384385 150.38129245 33.0234375 150.31640625 C34.31169434 150.27974854 35.59995117 150.24309082 36.92724609 150.20532227 C39.9127682 150.20469325 39.9127682 150.20469325 42 149 C39.32580193 128.12420222 36.00546109 107.3441019 32.7677002 86.5501709 C32.00185063 81.62873002 31.23833961 76.70692637 30.47460938 71.78515625 C28.98531221 62.1897554 27.49349534 52.59474825 26 43 C25.67 43 25.34 43 25 43 Z " fill="#E6020B" transform="translate(183,10)"/>
<path d="M0 0 C34.98 0 69.96 0 106 0 C106 10.89 106 21.78 106 33 C99.3328813 33.02315865 92.66590642 33.04300988 85.9987793 33.05493164 C83.73835778 33.05991019 81.47793939 33.06669544 79.2175293 33.07543945 C75.93798034 33.08779317 72.65847452 33.09329312 69.37890625 33.09765625 C68.39483292 33.10281754 67.41075958 33.10797882 66.39686584 33.11329651 C57.53149443 33.11397997 48.90528479 32.52384028 40 32 C40.33 50.48 40.66 68.96 41 88 C55.1650686 88.28873223 55.1650686 88.28873223 69.33032227 88.56811523 C71.11735747 88.60627173 72.90438599 88.64474366 74.69140625 88.68359375 C75.60563354 88.70006958 76.51986084 88.71654541 77.46179199 88.73352051 C78.35426636 88.75370239 79.24674072 88.77388428 80.16625977 88.79467773 C81.31542625 88.81799416 81.31542625 88.81799416 82.48780823 88.84178162 C85.67564071 89.042552 88.8379543 89.54827919 92 90 C92 100.56 92 111.12 92 122 C87.32667546 122.0232761 82.6535615 122.04308841 77.98022461 122.05493164 C76.39883737 122.05988196 74.81745451 122.06664392 73.23608398 122.07543945 C70.9295136 122.08792328 68.62300489 122.09332086 66.31640625 122.09765625 C65.63856583 122.10281754 64.9607254 122.10797882 64.26234436 122.11329651 C56.12922929 122.11417478 48.16722059 121.48042474 40 121 C40 142.78 40 164.56 40 187 C45.61 187 51.22 187 57 187 C60.45631164 187.10413956 63.89647599 187.22357263 67.34765625 187.40234375 C68.2146666 187.44436417 69.08167694 187.48638458 69.97496033 187.52967834 C71.77010856 187.61763735 73.56516059 187.7075832 75.36010742 187.79956055 C78.0907395 187.93894144 80.82167433 188.07047236 83.55273438 188.20117188 C85.31773109 188.28860437 87.08270598 188.37647873 88.84765625 188.46484375 C89.64986099 188.50343002 90.45206573 188.5420163 91.27857971 188.58177185 C92.04395554 188.62173782 92.80933136 188.6617038 93.59790039 188.70288086 C94.25722061 188.73619003 94.91654083 188.76949921 95.59584045 188.80381775 C99.07517475 189.08773553 102.53605807 189.56700726 106 190 C106 200.89 106 211.78 106 223 C89.69226721 222.47675724 73.41834908 221.78501818 57.12954712 220.86630249 C45.494595 220.21224587 33.86605782 219.68136486 22.21679688 219.34179688 C14.76692686 219.11350192 7.453438 218.57334138 0 218 C0 146.06 0 74.12 0 0 Z " fill="#E6020B" transform="translate(576,10)"/>
<path d="M0 0 C19.305 0.495 19.305 0.495 39 1 C39 67.99 39 134.98 39 204 C45.27 204.33 51.54 204.66 58 205 C61.49799493 205.28203186 64.97676066 205.576083 68.46484375 205.9375 C69.7420504 206.06499634 69.7420504 206.06499634 71.0450592 206.19506836 C72.79807906 206.37105818 74.55088741 206.5491688 76.3034668 206.72949219 C78.98756537 207.00514157 81.67240471 207.27252348 84.35742188 207.5390625 C86.08077718 207.71306677 87.80408644 207.88752792 89.52734375 208.0625 C90.71939674 208.18129517 90.71939674 208.18129517 91.93553162 208.30249023 C95.39811501 208.66214359 98.61348044 209.15337011 102 210 C102 221.88 102 233.76 102 246 C91.7287532 245.35804707 81.72882875 244.57632822 71.5625 243.25 C54.44151539 241.07074833 37.2767539 239.35573139 20.10180664 237.66308594 C18.54609451 237.50820961 18.54609451 237.50820961 16.95895386 237.35020447 C14.99992546 237.15531071 13.04064504 236.96292852 11.08108521 236.77345276 C9.76803909 236.64256508 9.76803909 236.64256508 8.4284668 236.5090332 C7.285373 236.39722466 7.285373 236.39722466 6.1191864 236.28315735 C4 236 4 236 0 235 C0 157.45 0 79.9 0 0 Z " fill="#E6020B" transform="translate(824,10)"/>
<path d="M0 0 C13.2 0 26.4 0 40 0 C40 64.02 40 128.04 40 194 C51.385 194.495 51.385 194.495 63 195 C68.63839917 195.40605301 74.26596461 195.81486534 79.89624023 196.30224609 C82.2552162 196.50584445 84.61482478 196.70054998 86.97460938 196.89453125 C88.4974385 197.02293246 90.02022686 197.15181834 91.54296875 197.28125 C92.23762741 197.338573 92.93228607 197.395896 93.647995 197.45495605 C96.89857537 197.74046751 99.8180342 198.20450855 103 199 C103 210.22 103 221.44 103 233 C97.04462835 233 91.62285757 232.86859047 85.76171875 232.265625 C57.18179008 229.38436038 28.66483728 227.20498748 0 225 C0 150.75 0 76.5 0 0 Z " fill="#E6020B" transform="translate(703,10)"/>
</svg>
